<?xml version="1.0" encoding="utf-8"?>
<!-- Generator: Adobe Illustrator 19.0.0, SVG Export Plug-In . SVG Version: 6.00 Build 0)  -->
<svg version="1.1" id="Layer_1" xmlns="http://www.w3.org/2000/svg" xmlns:xlink="http://www.w3.org/1999/xlink" x="0px" y="0px"
	 viewBox="0 0 820.5 337.2" style="enable-background:new 0 0 820.5 337.2;" xml:space="preserve">
<style type="text/css">
	.st0{clip-path:url(#SVGID_2_);fill:#3C3C3C;}
</style>
<g>
	<defs>
		<rect id="SVGID_1_" />
	</defs>
	<clipPath id="SVGID_2_">
		<use xlink:href="#SVGID_1_"  style="overflow:visible;"/>
	</clipPath>
	<path class="st0" d="M318.7,130.5c-10.8-11.6-25.9-18.1-41.3-18.1c-31,0-56.2,25.2-56.2,56.2c0,31,25.2,56.2,56.2,56.2
		c14.1,0,27.5-5.3,38-14.9c-3-4.6-5.7-9.8-7.9-15.7l-0.5,0.5c-7.5,8.5-18.3,13.4-29.6,13.4c-21.8,0-39.6-17.7-39.6-39.6
		c0-21.8,17.7-39.6,39.6-39.6c6.4,0,12.5,1.6,18,4.4l-33.9,43.9h21L318.7,130.5z"/>
	<path class="st0" d="M708.1,224.8v-67.2c0-24.9-20.1-45.2-44.9-45.2c-15,0-28.4,7.5-36.5,19c-8.2-11.5-21.5-19-36.5-19
		c-24.8,0-44.9,20.3-44.9,45.2v67.2H562v-67.2c0-15.7,12.6-28.4,28.1-28.4c15.4,0,28,12.6,28.1,28.2v67.4H635v0h0v-67.4
		c0.1-15.6,12.7-28.2,28.1-28.2c15.5,0,28.1,12.8,28.1,28.4v67.2H708.1z"/>
	<path class="st0" d="M129.2,224.8h-16.8v-66c0-25.6,20.7-46.4,46.1-46.4s46.1,20.8,46.1,46.4v66h-16.8v-66
		c0-16.3-13.2-29.6-29.4-29.6c-16.2,0-29.4,13.3-29.4,29.6V224.8z"/>
	<path class="st0" d="M530.4,168.6c0-31-25.2-56.2-56.2-56.2c-12.7,0-24.9,4.3-34.9,12.3c3,4.4,5.7,9.4,8,15
		c7.3-6.8,16.9-10.6,26.9-10.6c21.8,0,39.6,17.7,39.6,39.6c0,21.8-17.7,39.6-39.6,39.6c-23.5,0-38.5-18.8-40.1-39.6
		c-3.6-45.4-35.9-56.2-55.7-56.2c-31,0-56.2,25.2-56.2,56.2c0,31,25.2,56.2,56.2,56.2c12.7,0,25-4.4,34.9-12.3
		c-3-4.3-5.8-9.3-8.1-14.9c-7.3,6.8-16.9,10.6-26.8,10.6c-21.8,0-39.6-17.7-39.6-39.6c0-21.8,17.7-39.6,39.6-39.6
		c20.8,0,38.4,14.7,39.7,39.6c2.1,38.7,30.8,56.2,56.1,56.2C505.2,224.8,530.4,199.6,530.4,168.6"/>
</g>
</svg>
